# xmcd
#
# Track frame offsets:
#	150
#	13380
#	26477
#	44256
#	54496
#	70116
#	84439
#	102986
#	123414
#	140688
#	156157
#	174001
#	193328
#
# Disc length: 2850 seconds
#
# Revision: 0
# Processed by: cddbd v1.5.2PL0 Copyright (c) Steve Scherf et al.
# Submitted via: EasyCDDAExtractor 16.0.8.1
#
DISCID=ae0b200d
DTITLE=Padre Alessandro Campos - O Homes Decepciona, Jesus Cristo Jamais
DYEAR=2014
DGENRE=Gospel
TTITLE0=Amor Sincero (Telefone Mudo)
TTITLE1=Jesus Amigo (Moreninha Linda)
TTITLE2=Quero Ser Santo
TTITLE3=Estrada da Vida
TTITLE4=Pout Pourri Sertanejo
TTITLE5=O Gênesis (Fazenda São Francisco) (Maior Proeza)
TTITLE6=O Homes Decepciona, Jesus Cristo Jamais
TTITLE7=O Sonho (Sonhei Com Você)
TTITLE8=De Lá do Interior
TTITLE9=Troque o Ódio Pelo Amor
TTITLE10=O Último Julgamento
TTITLE11=Utopia
TTITLE12=Alô, Meu Deus
EXTD=
EXTT0=
EXTT1=
EXTT2=
EXTT3=
EXTT4=
EXTT5=
EXTT6=
EXTT7=
EXTT8=
EXTT9=
EXTT10=
EXTT11=
EXTT12=
PLAYORDER=
